
<svg t="1604394176236" class="icon" viewBox="0 0 1024 1024" version="1.1" xmlns="http://www.w3.org/2000/svg" p-id="7260" xmlns:xlink="http://www.w3.org/1999/xlink" width="128" height="128"><defs><style type="text/css"></style></defs><path d="M0 1024V0h1024z" fill="#FF6600" p-id="7261"></path><path d="M145.92 482.304l37.376 37.376c8.704 8.704 10.752 14.848 7.68 23.04-3.072 8.192-11.264 17.408-25.6 31.232-4.608-3.584-13.312-7.68-19.456-9.728 10.24-9.728 19.456-18.944 22.016-22.016 2.56-3.072 3.072-4.608 0-7.68L135.168 501.76c-8.704 15.872-16.896 30.208-23.552 43.008l-19.968-11.776c7.68-12.8 17.408-28.672 28.16-47.104l-33.792-33.792-32.768 32.768-15.36-15.36 32.768-32.768-30.208-30.208 15.36-15.36 30.208 30.208 25.6-25.6 15.36 15.36-25.6 25.6 29.696 29.696c6.144-10.752 12.8-22.016 18.944-32.768l16.384 12.8-20.48 35.84z m30.208-121.344c16.896 18.944 30.72 35.84 40.448 52.736 18.944-4.096 37.376-7.68 50.688-9.216l4.608 21.504c-11.776 1.024-28.16 3.072-45.568 6.144 10.752 25.088 12.288 49.152 4.608 77.824-5.632-1.536-15.872-2.56-22.016-1.536 7.68-26.624 6.144-48.64-4.096-72.192-12.288 3.072-24.576 5.632-35.84 8.192l-3.072-18.944c9.216-2.56 18.944-4.608 28.672-7.68-8.704-13.312-19.456-27.136-33.28-42.496L132.096 404.48 117.76 390.144l29.696-29.696c-9.728-10.24-19.968-20.992-31.232-32.256l15.872-15.872c11.264 11.776 22.016 22.016 31.232 32.768l44.544-44.544c67.072 70.144 100.864 104.448 112.64 92.16 4.096-4.096 0-11.264-17.92-30.208 6.144-1.024 14.336-3.584 19.456-6.144 23.04 26.624 25.6 38.912 12.288 51.712-26.112 26.112-64-12.8-128-77.824l-30.208 30.72z m20.992 278.528c-0.512-20.48-6.144-48.64-13.824-70.656l19.456-10.752c7.68 23.04 14.336 51.712 15.872 72.704l-21.504 8.704z m43.008-118.272c15.872 9.728 34.816 24.064 44.544 33.792L271.36 573.44c-10.24-10.24-29.184-25.088-44.544-35.84l13.312-16.384z m43.52-46.592c18.944 6.144 41.472 17.408 53.76 25.088l-12.288 19.456c-12.288-8.192-34.816-19.456-53.248-27.136l11.776-17.408z m39.424-49.152c24.064 2.048 55.296 7.68 72.704 13.824l-7.68 22.016c-17.408-6.144-48.64-12.8-72.704-15.36l7.68-20.48zM252.416 193.024c23.552 1.024 53.76 4.096 71.168 8.192l-4.096 23.04c-16.896-4.608-47.616-9.216-71.68-10.752l4.608-20.48zM276.48 257.024l16.384-16.384 156.672 156.672-16.384 16.384L276.48 257.024z m313.856-43.52c10.752 10.752 12.8 18.944 8.192 29.184-5.12 10.24-18.432 24.064-39.424 44.544-5.12-3.584-14.848-8.192-22.016-9.728 16.896-15.36 32.256-31.232 36.352-35.84 4.096-4.608 4.096-7.168 0-11.264L418.816 74.24 313.856 179.2l-15.872-15.872L419.328 42.496l171.008 171.008z" fill="#FFFFFF" p-id="7262"></path></svg>